<svg width="175" height="60" viewBox="0 0 3209 1095" fill="none" xmlns="http://www.w3.org/2000/svg"><path d="M0 54.732H711.498" stroke="white" stroke-width="109.461"></path><path d="M1039.88 1094.62V383.118" stroke="white" stroke-width="109.461"></path><path d="M0 1039.88H1094.61" stroke="white" stroke-width="109.461"></path><path d="M54.733 1094.62V0.00372314" stroke="white" stroke-width="109.461"></path><path d="M820.96 54.733L1094.61 54.732" stroke="white" stroke-width="109.461"></path><path d="M1039.88 273.653V-0.00012207" stroke="white" stroke-width="109.461"></path><path d="M1328.6 274H1264.9V268.75L1353.1 22H1423.8L1512 268.75V274H1447.6L1432.2 225H1344L1328.6 274ZM1386.35 89.025L1358.35 178.8H1417.85L1389.85 89.025H1386.35ZM1709.04 88.5V274H1650.24V254.4H1646.74C1640.61 263.15 1625.74 277.5 1594.24 277.5C1551.89 277.5 1525.29 253.35 1525.29 209.25V88.5H1586.89V205.75C1586.89 223.25 1597.04 232.7 1613.14 232.7C1631.34 232.7 1647.44 223.25 1647.44 195.25V88.5H1709.04ZM1737.04 176.35C1737.04 113.7 1775.71 85 1821.74 85C1850.09 85 1865.84 95.325 1872.84 105.125H1876.34V88.5H1935.14V266.3C1935.14 320.55 1898.39 348.2 1837.84 348.2C1777.99 348.2 1744.56 320.55 1741.94 282.75V277.5H1797.59C1798.64 294.65 1810.89 306.2 1836.44 306.2C1861.29 306.2 1873.54 294.65 1873.54 272.6V251.075H1870.04C1861.99 259.475 1847.11 267.7 1821.74 267.7C1775.71 267.7 1737.04 239 1737.04 176.35ZM1799.34 176.35C1799.34 207.5 1814.39 222.9 1837.84 222.9C1861.29 222.9 1876.34 207.5 1876.34 176.35C1876.34 145.2 1861.29 129.8 1837.84 129.8C1814.39 129.8 1799.34 145.2 1799.34 176.35ZM1971.36 274V88.5H2029.46V108.1H2032.96C2040.66 97.6 2056.41 85 2085.46 85C2114.86 85 2129.91 98.3 2135.86 109.5H2139.36C2148.11 99.35 2164.91 85 2196.76 85C2233.51 85 2261.86 106.35 2261.86 148V274H2200.96V152.9C2200.96 138.2 2191.51 129.8 2177.16 129.8C2160.01 129.8 2147.06 138.9 2147.06 163.4V274H2086.16V152.9C2086.16 138.2 2076.71 129.8 2062.36 129.8C2045.21 129.8 2032.26 138.9 2032.26 163.4V274H1971.36ZM2288.35 181.25C2288.35 115.8 2326.85 84.3 2384.95 84.3C2442.35 84.3 2477 116.85 2477 174.95V196.3H2346.98C2347.68 218.35 2360.1 235.85 2384.6 235.85C2409.45 235.85 2418.03 223.25 2420.3 213.8H2473.5V219.05C2467.55 245.825 2444.1 278.2 2385.65 278.2C2326.85 278.2 2288.35 246.7 2288.35 181.25ZM2347.5 159.55H2419.6C2419.25 141.175 2409.1 125.95 2384.25 125.95C2360.1 125.95 2349.25 141.875 2347.5 159.55ZM2504.91 274V88.5H2563.71V108.1H2567.21C2573.33 99.35 2587.86 85 2620.41 85C2663.46 85 2689.71 109.15 2689.71 153.25V274H2628.11V156.75C2628.11 139.25 2618.31 129.8 2601.51 129.8C2582.61 129.8 2566.51 139.25 2566.51 167.25V274H2504.91ZM2705.92 128.4V88.5H2738.12V40.2H2799.02V88.5H2835.42V128.4H2799.02V218.7C2799.02 227.1 2803.92 232 2812.32 232H2834.72V274H2794.82C2759.82 274 2738.12 255.1 2738.12 220.8V128.4H2705.92ZM2850.95 181.25C2850.95 116.5 2895.4 84.3 2953.85 84.3C3012.3 84.3 3056.75 116.5 3056.75 181.25C3056.75 246 3012.3 278.2 2953.85 278.2C2895.4 278.2 2850.95 246 2850.95 181.25ZM2913.25 181.25C2913.25 215.9 2929 234.1 2953.85 234.1C2978.7 234.1 2994.45 215.9 2994.45 181.25C2994.45 146.6 2978.7 128.4 2953.85 128.4C2929 128.4 2913.25 146.6 2913.25 181.25ZM3084.6 274V88.5H3143.4V117.55H3146.9C3154.25 95.15 3170.7 82.2 3208.15 86.4V137.5C3172.45 131.55 3146.2 139.6 3146.2 183.7V274H3084.6ZM1280.3 722V470H1344.7V675.1H1458.1V722H1280.3ZM1539.31 593.2H1484.01V587.95C1488.21 554 1520.06 532.3 1569.41 532.3C1619.11 532.3 1652.71 554 1652.71 605.1V674.4C1652.71 693.65 1653.76 706.6 1658.31 716.75V722H1600.21C1598.81 717.1 1598.11 711.85 1598.11 704.85H1594.61C1585.86 715 1572.21 724.8 1542.81 724.8C1503.26 724.8 1472.81 703.45 1472.81 667.4C1472.81 629.95 1501.51 613.675 1537.21 610L1578.86 605.8C1590.06 604.75 1595.31 600.9 1595.31 592.15C1595.31 580.6 1585.51 573.6 1568.36 573.6C1551.56 573.6 1540.01 580.6 1539.31 593.2ZM1533.01 664.25C1533.01 676.85 1542.11 684.2 1558.91 684.2C1573.61 684.2 1594.61 676.15 1594.61 647.45V637.3H1591.11C1585.51 640.1 1579.21 641.5 1569.76 642.55L1553.66 644.3C1542.81 645.525 1533.01 650.95 1533.01 664.25ZM1688.36 722V470H1749.96V551.2H1753.46C1760.28 542.8 1774.98 533 1804.21 533C1849.71 533 1888.56 562.75 1888.56 629.25C1888.56 695.75 1849.71 725.5 1804.21 725.5C1774.98 725.5 1758.53 715.875 1750.66 703.45H1747.16V722H1688.36ZM1747.16 629.25C1747.16 663.55 1762.56 680.7 1786.71 680.7C1810.86 680.7 1826.26 663.55 1826.26 629.25C1826.26 594.95 1810.86 577.8 1786.71 577.8C1762.56 577.8 1747.16 594.95 1747.16 629.25ZM1910.73 590.4C1910.73 556.45 1940.48 533 1992.98 533C2045.48 533 2075.58 556.45 2080.13 587.95V593.2H2024.83C2023.08 578.5 2011.53 572.9 1994.73 572.9C1978.63 572.9 1968.13 578.85 1968.13 588.3C1968.13 598.1 1976.18 601.95 1986.68 603.7L2023.78 609.65C2061.58 615.6 2087.13 629.95 2087.13 664.95C2087.13 701.35 2058.43 726.2 2000.33 726.2C1942.23 726.2 1911.43 701 1906.88 668.8V663.55H1963.93C1965.68 680.35 1981.43 686.3 2000.33 686.3C2019.58 686.3 2029.73 680.7 2029.73 669.5C2029.73 659.7 2021.68 656.55 2008.73 654.45L1971.63 648.5C1935.23 642.55 1910.73 623.65 1910.73 590.4Z" fill="white"></path></svg>