<svg xmlns="http://www.w3.org/2000/svg" viewBox="0 0 200 200" width="200" height="200">
  <!-- CIBC interlocking chevrons logo -->
  <g transform="translate(100,100) scale(0.38)">
    <!-- Left chevron (darker red/maroon) -->
    <path d="M-10,-120 L-120,0 L-10,120 L-80,120 L-80,120 Q-90,120 -95,110 L-170,0 L-95,-110 Q-90,-120 -80,-120 Z" fill="#8B1A3A"/>
    <!-- Right chevron (bright red) -->
    <path d="M10,-120 L120,0 L10,120 L80,120 Q90,120 95,110 L170,0 L95,-110 Q90,-120 80,-120 Z" fill="#DC143C"/>
    <!-- Left inner shape -->
    <path d="M-10,-120 L-120,0 L-10,120 L-10,55 L-65,0 L-10,-55 Z" fill="#8B1A3A"/>
    <!-- Right inner shape -->
    <path d="M10,-120 L120,0 L10,120 L10,55 L65,0 L10,-55 Z" fill="#DC143C"/>
  </g>
</svg>
